<mxfile host="app.diagrams.net" modified="2022-01-25T06:50:45.771Z" agent="5.0 (Windows NT 10.0; Win64; x64) AppleWebKit/537.36 (KHTML, like Gecko) Chrome/97.0.4692.99 Safari/537.36" etag="kJ8qgC2Ppf4gLL-TG8nD" version="16.4.3" type="github">
  <diagram id="FppSvizZenMtsD1ZfpNk" name="第 1 页">
    <mxGraphModel dx="1730" dy="912" grid="1" gridSize="10" guides="1" tooltips="1" connect="1" arrows="1" fold="1" page="1" pageScale="1" pageWidth="827" pageHeight="1169" math="0" shadow="0">
      <root>
        <mxCell id="0" />
        <mxCell id="1" parent="0" />
        <mxCell id="sExB5yY1jToBbWZMNQQP-56" value="Mysql" style="rounded=0;whiteSpace=wrap;html=1;verticalAlign=top;" vertex="1" parent="1">
          <mxGeometry x="570" y="60" width="290" height="220" as="geometry" />
        </mxCell>
        <mxCell id="sExB5yY1jToBbWZMNQQP-42" value="高德API" style="rounded=0;whiteSpace=wrap;html=1;verticalAlign=bottom;" vertex="1" parent="1">
          <mxGeometry x="62" y="670" width="151" height="142.5" as="geometry" />
        </mxCell>
        <mxCell id="sExB5yY1jToBbWZMNQQP-39" value="Mysql" style="rounded=0;whiteSpace=wrap;html=1;verticalAlign=bottom;" vertex="1" parent="1">
          <mxGeometry x="62" y="547.5" width="164" height="65" as="geometry" />
        </mxCell>
        <mxCell id="sExB5yY1jToBbWZMNQQP-38" value="Hologres" style="rounded=0;whiteSpace=wrap;html=1;verticalAlign=bottom;" vertex="1" parent="1">
          <mxGeometry x="50" y="405" width="180" height="65" as="geometry" />
        </mxCell>
        <mxCell id="sExB5yY1jToBbWZMNQQP-9" value="Flink" style="rounded=0;whiteSpace=wrap;html=1;verticalAlign=top;" vertex="1" parent="1">
          <mxGeometry x="270" y="300" width="370" height="220" as="geometry" />
        </mxCell>
        <mxCell id="sExB5yY1jToBbWZMNQQP-1" value="Hive" style="rounded=0;whiteSpace=wrap;html=1;verticalAlign=top;" vertex="1" parent="1">
          <mxGeometry x="80" y="60" width="470" height="220" as="geometry" />
        </mxCell>
        <mxCell id="sExB5yY1jToBbWZMNQQP-12" style="rounded=0;orthogonalLoop=1;jettySize=auto;html=1;entryX=0;entryY=0.5;entryDx=0;entryDy=0;exitX=1;exitY=0.5;exitDx=0;exitDy=0;" edge="1" parent="1" source="sExB5yY1jToBbWZMNQQP-2" target="sExB5yY1jToBbWZMNQQP-10">
          <mxGeometry relative="1" as="geometry" />
        </mxCell>
        <mxCell id="sExB5yY1jToBbWZMNQQP-16" style="rounded=0;orthogonalLoop=1;jettySize=auto;html=1;entryX=0;entryY=0.5;entryDx=0;entryDy=0;exitX=1;exitY=0.5;exitDx=0;exitDy=0;" edge="1" parent="1" source="sExB5yY1jToBbWZMNQQP-2" target="sExB5yY1jToBbWZMNQQP-11">
          <mxGeometry relative="1" as="geometry" />
        </mxCell>
        <mxCell id="sExB5yY1jToBbWZMNQQP-2" value="ods_zoneota_ota_task_msg&lt;br&gt;_info_delta" style="rounded=1;whiteSpace=wrap;html=1;" vertex="1" parent="1">
          <mxGeometry x="90" y="80" width="160" height="40" as="geometry" />
        </mxCell>
        <mxCell id="sExB5yY1jToBbWZMNQQP-3" value="Kafka" style="rounded=0;whiteSpace=wrap;html=1;verticalAlign=top;" vertex="1" parent="1">
          <mxGeometry x="80" y="300" width="180" height="80" as="geometry" />
        </mxCell>
        <mxCell id="sExB5yY1jToBbWZMNQQP-13" style="rounded=0;orthogonalLoop=1;jettySize=auto;html=1;entryX=0;entryY=0.5;entryDx=0;entryDy=0;exitX=1;exitY=0.5;exitDx=0;exitDy=0;" edge="1" parent="1" source="sExB5yY1jToBbWZMNQQP-5" target="sExB5yY1jToBbWZMNQQP-10">
          <mxGeometry relative="1" as="geometry" />
        </mxCell>
        <mxCell id="sExB5yY1jToBbWZMNQQP-17" style="rounded=0;orthogonalLoop=1;jettySize=auto;html=1;entryX=0;entryY=0.5;entryDx=0;entryDy=0;exitX=1;exitY=0.5;exitDx=0;exitDy=0;" edge="1" parent="1" source="sExB5yY1jToBbWZMNQQP-5" target="sExB5yY1jToBbWZMNQQP-11">
          <mxGeometry relative="1" as="geometry" />
        </mxCell>
        <mxCell id="sExB5yY1jToBbWZMNQQP-5" value="ods_zoneota_ota_baseline&lt;br&gt;_data_info_delta" style="rounded=1;whiteSpace=wrap;html=1;" vertex="1" parent="1">
          <mxGeometry x="90" y="130" width="160" height="40" as="geometry" />
        </mxCell>
        <mxCell id="sExB5yY1jToBbWZMNQQP-14" style="rounded=0;orthogonalLoop=1;jettySize=auto;html=1;entryX=0;entryY=0.5;entryDx=0;entryDy=0;exitX=1;exitY=0.5;exitDx=0;exitDy=0;" edge="1" parent="1" source="sExB5yY1jToBbWZMNQQP-6" target="sExB5yY1jToBbWZMNQQP-10">
          <mxGeometry relative="1" as="geometry" />
        </mxCell>
        <mxCell id="sExB5yY1jToBbWZMNQQP-18" style="rounded=0;orthogonalLoop=1;jettySize=auto;html=1;exitX=1;exitY=0.5;exitDx=0;exitDy=0;" edge="1" parent="1" source="sExB5yY1jToBbWZMNQQP-6" target="sExB5yY1jToBbWZMNQQP-11">
          <mxGeometry relative="1" as="geometry" />
        </mxCell>
        <mxCell id="sExB5yY1jToBbWZMNQQP-6" value="ods_zoneota_ota_upgrade&lt;br&gt;_task_sync_info_delta" style="rounded=1;whiteSpace=wrap;html=1;" vertex="1" parent="1">
          <mxGeometry x="90" y="180" width="160" height="40" as="geometry" />
        </mxCell>
        <mxCell id="sExB5yY1jToBbWZMNQQP-15" style="rounded=0;orthogonalLoop=1;jettySize=auto;html=1;entryX=0;entryY=0.5;entryDx=0;entryDy=0;exitX=1;exitY=0.5;exitDx=0;exitDy=0;" edge="1" parent="1" source="sExB5yY1jToBbWZMNQQP-7" target="sExB5yY1jToBbWZMNQQP-10">
          <mxGeometry relative="1" as="geometry" />
        </mxCell>
        <mxCell id="sExB5yY1jToBbWZMNQQP-19" style="rounded=0;orthogonalLoop=1;jettySize=auto;html=1;entryX=0;entryY=0.5;entryDx=0;entryDy=0;exitX=1;exitY=0.5;exitDx=0;exitDy=0;" edge="1" parent="1" source="sExB5yY1jToBbWZMNQQP-7" target="sExB5yY1jToBbWZMNQQP-11">
          <mxGeometry relative="1" as="geometry" />
        </mxCell>
        <mxCell id="sExB5yY1jToBbWZMNQQP-7" value="ods_zoneota_ota_task&lt;br&gt;_vehicle_info_delta" style="rounded=1;whiteSpace=wrap;html=1;" vertex="1" parent="1">
          <mxGeometry x="90" y="230" width="160" height="40" as="geometry" />
        </mxCell>
        <mxCell id="sExB5yY1jToBbWZMNQQP-24" style="edgeStyle=none;rounded=0;orthogonalLoop=1;jettySize=auto;html=1;entryX=0;entryY=0.5;entryDx=0;entryDy=0;" edge="1" parent="1" source="sExB5yY1jToBbWZMNQQP-8" target="sExB5yY1jToBbWZMNQQP-20">
          <mxGeometry relative="1" as="geometry" />
        </mxCell>
        <mxCell id="sExB5yY1jToBbWZMNQQP-8" value="ota_vehicle_upgrade&lt;br&gt;_status_info" style="ellipse;whiteSpace=wrap;html=1;" vertex="1" parent="1">
          <mxGeometry x="90" y="330" width="160" height="40" as="geometry" />
        </mxCell>
        <mxCell id="sExB5yY1jToBbWZMNQQP-63" style="rounded=0;orthogonalLoop=1;jettySize=auto;html=1;entryX=0;entryY=0.5;entryDx=0;entryDy=0;exitX=1;exitY=0.5;exitDx=0;exitDy=0;" edge="1" parent="1" source="sExB5yY1jToBbWZMNQQP-10" target="sExB5yY1jToBbWZMNQQP-58">
          <mxGeometry relative="1" as="geometry">
            <mxPoint x="600" y="140" as="sourcePoint" />
          </mxGeometry>
        </mxCell>
        <mxCell id="sExB5yY1jToBbWZMNQQP-10" value="ads_imwr_ota_task_veh_info" style="rounded=1;whiteSpace=wrap;html=1;" vertex="1" parent="1">
          <mxGeometry x="350" y="120" width="160" height="40" as="geometry" />
        </mxCell>
        <mxCell id="sExB5yY1jToBbWZMNQQP-64" style="edgeStyle=none;rounded=0;orthogonalLoop=1;jettySize=auto;html=1;entryX=0;entryY=0.5;entryDx=0;entryDy=0;" edge="1" parent="1" source="sExB5yY1jToBbWZMNQQP-11" target="sExB5yY1jToBbWZMNQQP-59">
          <mxGeometry relative="1" as="geometry" />
        </mxCell>
        <mxCell id="sExB5yY1jToBbWZMNQQP-11" value="ads_imwr_ota_task_ecu_info" style="rounded=1;whiteSpace=wrap;html=1;" vertex="1" parent="1">
          <mxGeometry x="350" y="180" width="160" height="40" as="geometry" />
        </mxCell>
        <mxCell id="sExB5yY1jToBbWZMNQQP-23" style="edgeStyle=none;rounded=0;orthogonalLoop=1;jettySize=auto;html=1;entryX=0.5;entryY=0;entryDx=0;entryDy=0;" edge="1" parent="1" source="sExB5yY1jToBbWZMNQQP-20" target="sExB5yY1jToBbWZMNQQP-21">
          <mxGeometry relative="1" as="geometry">
            <Array as="points" />
          </mxGeometry>
        </mxCell>
        <mxCell id="sExB5yY1jToBbWZMNQQP-26" value="通过vin查询hologres获取经纬度" style="edgeLabel;html=1;align=center;verticalAlign=middle;resizable=0;points=[];" vertex="1" connectable="0" parent="sExB5yY1jToBbWZMNQQP-23">
          <mxGeometry x="-0.1025" y="1" relative="1" as="geometry">
            <mxPoint as="offset" />
          </mxGeometry>
        </mxCell>
        <mxCell id="sExB5yY1jToBbWZMNQQP-67" style="rounded=0;orthogonalLoop=1;jettySize=auto;html=1;entryX=0;entryY=0.5;entryDx=0;entryDy=0;" edge="1" parent="1" source="sExB5yY1jToBbWZMNQQP-20" target="sExB5yY1jToBbWZMNQQP-61">
          <mxGeometry relative="1" as="geometry" />
        </mxCell>
        <mxCell id="sExB5yY1jToBbWZMNQQP-68" style="edgeStyle=orthogonalEdgeStyle;rounded=0;orthogonalLoop=1;jettySize=auto;html=1;entryX=0.5;entryY=0;entryDx=0;entryDy=0;" edge="1" parent="1" source="sExB5yY1jToBbWZMNQQP-20" target="sExB5yY1jToBbWZMNQQP-35">
          <mxGeometry relative="1" as="geometry" />
        </mxCell>
        <mxCell id="sExB5yY1jToBbWZMNQQP-70" value="未获取到省市区" style="edgeLabel;html=1;align=center;verticalAlign=middle;resizable=0;points=[];" vertex="1" connectable="0" parent="sExB5yY1jToBbWZMNQQP-68">
          <mxGeometry x="0.3523" relative="1" as="geometry">
            <mxPoint as="offset" />
          </mxGeometry>
        </mxCell>
        <mxCell id="sExB5yY1jToBbWZMNQQP-69" style="edgeStyle=orthogonalEdgeStyle;rounded=0;orthogonalLoop=1;jettySize=auto;html=1;entryX=0.5;entryY=0;entryDx=0;entryDy=0;" edge="1" parent="1" source="sExB5yY1jToBbWZMNQQP-20" target="sExB5yY1jToBbWZMNQQP-52">
          <mxGeometry relative="1" as="geometry" />
        </mxCell>
        <mxCell id="sExB5yY1jToBbWZMNQQP-71" value="获取到省市区" style="edgeLabel;html=1;align=center;verticalAlign=middle;resizable=0;points=[];" vertex="1" connectable="0" parent="sExB5yY1jToBbWZMNQQP-69">
          <mxGeometry x="0.2779" y="-1" relative="1" as="geometry">
            <mxPoint x="5" y="-1" as="offset" />
          </mxGeometry>
        </mxCell>
        <mxCell id="sExB5yY1jToBbWZMNQQP-20" value="vehicleUpgradeStatusInfoDS" style="ellipse;whiteSpace=wrap;html=1;" vertex="1" parent="1">
          <mxGeometry x="335" y="330" width="160" height="40" as="geometry" />
        </mxCell>
        <mxCell id="sExB5yY1jToBbWZMNQQP-28" style="edgeStyle=orthogonalEdgeStyle;rounded=0;orthogonalLoop=1;jettySize=auto;html=1;exitX=0.5;exitY=1;exitDx=0;exitDy=0;entryX=0.5;entryY=1;entryDx=0;entryDy=0;" edge="1" parent="1" source="sExB5yY1jToBbWZMNQQP-21" target="sExB5yY1jToBbWZMNQQP-22">
          <mxGeometry relative="1" as="geometry">
            <Array as="points">
              <mxPoint x="140" y="510" />
              <mxPoint x="142" y="510" />
            </Array>
          </mxGeometry>
        </mxCell>
        <mxCell id="sExB5yY1jToBbWZMNQQP-29" value="通过经纬度查询Mysql&lt;br&gt;获取省市区" style="edgeLabel;html=1;align=center;verticalAlign=middle;resizable=0;points=[];" vertex="1" connectable="0" parent="sExB5yY1jToBbWZMNQQP-28">
          <mxGeometry x="-0.1325" y="1" relative="1" as="geometry">
            <mxPoint x="-1" y="1" as="offset" />
          </mxGeometry>
        </mxCell>
        <mxCell id="sExB5yY1jToBbWZMNQQP-21" value="ods_imvbs_vbs_data_gps" style="rounded=1;whiteSpace=wrap;html=1;" vertex="1" parent="1">
          <mxGeometry x="62" y="420" width="156" height="30" as="geometry" />
        </mxCell>
        <mxCell id="sExB5yY1jToBbWZMNQQP-22" value="dim_pub_area" style="rounded=1;whiteSpace=wrap;html=1;" vertex="1" parent="1">
          <mxGeometry x="64" y="562.5" width="156" height="30" as="geometry" />
        </mxCell>
        <mxCell id="sExB5yY1jToBbWZMNQQP-43" style="rounded=0;orthogonalLoop=1;jettySize=auto;html=1;entryX=1;entryY=0.5;entryDx=0;entryDy=0;edgeStyle=orthogonalEdgeStyle;" edge="1" parent="1" source="sExB5yY1jToBbWZMNQQP-35" target="sExB5yY1jToBbWZMNQQP-40">
          <mxGeometry relative="1" as="geometry">
            <Array as="points">
              <mxPoint x="280" y="460" />
              <mxPoint x="280" y="695" />
            </Array>
          </mxGeometry>
        </mxCell>
        <mxCell id="sExB5yY1jToBbWZMNQQP-44" value="调用高德API&lt;br&gt;逆地理编码接口&lt;br&gt;获取省市区" style="edgeLabel;html=1;align=center;verticalAlign=middle;resizable=0;points=[];" vertex="1" connectable="0" parent="sExB5yY1jToBbWZMNQQP-43">
          <mxGeometry x="-0.1756" relative="1" as="geometry">
            <mxPoint as="offset" />
          </mxGeometry>
        </mxCell>
        <mxCell id="sExB5yY1jToBbWZMNQQP-72" style="edgeStyle=orthogonalEdgeStyle;rounded=0;orthogonalLoop=1;jettySize=auto;html=1;entryX=0.5;entryY=1;entryDx=0;entryDy=0;exitX=0.5;exitY=1;exitDx=0;exitDy=0;" edge="1" parent="1" source="sExB5yY1jToBbWZMNQQP-35" target="sExB5yY1jToBbWZMNQQP-52">
          <mxGeometry relative="1" as="geometry" />
        </mxCell>
        <mxCell id="sExB5yY1jToBbWZMNQQP-73" value="合流" style="edgeLabel;html=1;align=center;verticalAlign=middle;resizable=0;points=[];" vertex="1" connectable="0" parent="sExB5yY1jToBbWZMNQQP-72">
          <mxGeometry x="-0.1104" y="-2" relative="1" as="geometry">
            <mxPoint as="offset" />
          </mxGeometry>
        </mxCell>
        <mxCell id="sExB5yY1jToBbWZMNQQP-35" value="sideOutPutDS" style="ellipse;whiteSpace=wrap;html=1;" vertex="1" parent="1">
          <mxGeometry x="270" y="440" width="120" height="40" as="geometry" />
        </mxCell>
        <mxCell id="sExB5yY1jToBbWZMNQQP-45" style="rounded=0;orthogonalLoop=1;jettySize=auto;html=1;entryX=0.5;entryY=0;entryDx=0;entryDy=0;exitX=0.5;exitY=1;exitDx=0;exitDy=0;" edge="1" parent="1" source="sExB5yY1jToBbWZMNQQP-40" target="sExB5yY1jToBbWZMNQQP-41">
          <mxGeometry relative="1" as="geometry" />
        </mxCell>
        <mxCell id="sExB5yY1jToBbWZMNQQP-46" value="省、市、区分别调用地理编码接口&lt;br&gt;获取行政区划编码及经纬度" style="edgeLabel;html=1;align=center;verticalAlign=middle;resizable=0;points=[];" vertex="1" connectable="0" parent="sExB5yY1jToBbWZMNQQP-45">
          <mxGeometry x="0.2869" y="-1" relative="1" as="geometry">
            <mxPoint x="-4" y="-9" as="offset" />
          </mxGeometry>
        </mxCell>
        <mxCell id="sExB5yY1jToBbWZMNQQP-40" value="逆地理编码接口" style="ellipse;whiteSpace=wrap;html=1;" vertex="1" parent="1">
          <mxGeometry x="92.5" y="680" width="90" height="30" as="geometry" />
        </mxCell>
        <mxCell id="sExB5yY1jToBbWZMNQQP-47" style="edgeStyle=orthogonalEdgeStyle;rounded=0;orthogonalLoop=1;jettySize=auto;html=1;entryX=0;entryY=0.5;entryDx=0;entryDy=0;" edge="1" parent="1" source="sExB5yY1jToBbWZMNQQP-41" target="sExB5yY1jToBbWZMNQQP-22">
          <mxGeometry relative="1" as="geometry">
            <Array as="points">
              <mxPoint x="30" y="774" />
              <mxPoint x="30" y="578" />
            </Array>
          </mxGeometry>
        </mxCell>
        <mxCell id="sExB5yY1jToBbWZMNQQP-48" value="更新维表" style="edgeLabel;html=1;align=center;verticalAlign=middle;resizable=0;points=[];" vertex="1" connectable="0" parent="sExB5yY1jToBbWZMNQQP-47">
          <mxGeometry x="0.4191" y="2" relative="1" as="geometry">
            <mxPoint as="offset" />
          </mxGeometry>
        </mxCell>
        <mxCell id="sExB5yY1jToBbWZMNQQP-41" value="地理编码接口" style="ellipse;whiteSpace=wrap;html=1;" vertex="1" parent="1">
          <mxGeometry x="92.5" y="757.5" width="90" height="33" as="geometry" />
        </mxCell>
        <mxCell id="sExB5yY1jToBbWZMNQQP-75" style="rounded=0;orthogonalLoop=1;jettySize=auto;html=1;entryX=0.5;entryY=1;entryDx=0;entryDy=0;exitX=1;exitY=0.5;exitDx=0;exitDy=0;" edge="1" parent="1" source="sExB5yY1jToBbWZMNQQP-52" target="sExB5yY1jToBbWZMNQQP-60">
          <mxGeometry relative="1" as="geometry" />
        </mxCell>
        <mxCell id="sExB5yY1jToBbWZMNQQP-52" value="vehicleUpgradeStatusInfoDS" style="ellipse;whiteSpace=wrap;html=1;" vertex="1" parent="1">
          <mxGeometry x="460" y="440" width="160" height="40" as="geometry" />
        </mxCell>
        <mxCell id="sExB5yY1jToBbWZMNQQP-57" style="edgeStyle=orthogonalEdgeStyle;rounded=0;orthogonalLoop=1;jettySize=auto;html=1;exitX=0.5;exitY=1;exitDx=0;exitDy=0;" edge="1" parent="1" source="sExB5yY1jToBbWZMNQQP-20" target="sExB5yY1jToBbWZMNQQP-20">
          <mxGeometry relative="1" as="geometry" />
        </mxCell>
        <mxCell id="sExB5yY1jToBbWZMNQQP-58" value="dwr_dim_ota_task_veh_config" style="rounded=1;whiteSpace=wrap;html=1;" vertex="1" parent="1">
          <mxGeometry x="613.75" y="80" width="206.25" height="40" as="geometry" />
        </mxCell>
        <mxCell id="sExB5yY1jToBbWZMNQQP-59" value="dwr_dim_ota_task_ecu_config" style="rounded=1;whiteSpace=wrap;html=1;" vertex="1" parent="1">
          <mxGeometry x="615" y="130" width="205" height="40" as="geometry" />
        </mxCell>
        <mxCell id="sExB5yY1jToBbWZMNQQP-60" value="dwr_ods_ota_veh_upgrade_status" style="rounded=1;whiteSpace=wrap;html=1;" vertex="1" parent="1">
          <mxGeometry x="615" y="230" width="200" height="40" as="geometry" />
        </mxCell>
        <mxCell id="sExB5yY1jToBbWZMNQQP-61" value="dwr_ods_ota_ecu_upgrade_status" style="rounded=1;whiteSpace=wrap;html=1;" vertex="1" parent="1">
          <mxGeometry x="615.63" y="180" width="202.5" height="40" as="geometry" />
        </mxCell>
      </root>
    </mxGraphModel>
  </diagram>
</mxfile>
